<?xml version="1.0" encoding="utf-8"?>
<!-- Generator: Adobe Illustrator 23.0.3, SVG Export Plug-In . SVG Version: 6.00 Build 0)  -->
<svg version="1.1" id="Capa_1" xmlns="http://www.w3.org/2000/svg" xmlns:xlink="http://www.w3.org/1999/xlink" x="0px" y="0px"
	 viewBox="0 0 155 49" style="enable-background:new 0 0 155 49;" xml:space="preserve">
<style type="text/css">
	.st0{fill:#1D1D1B;}
	.st1{fill:#FF8300;}
</style>
<g>
	<path class="st0" d="M5.43,42.86h1.66v4.55h3.23v1.17H5.43V42.86z"/>
	<path class="st0" d="M11.6,42.86h4.91v1.17h-3.25v1.06h3.07v1.17h-3.07v1.14h3.32v1.17H11.6V42.86z"/>
	<path class="st0" d="M21.59,42.86h3.18c0.75,0,1.48,0.1,2.06,0.48C27.53,43.8,28,44.62,28,45.66c0,1.01-0.37,1.77-0.91,2.23
		c-0.49,0.42-1.28,0.69-2.45,0.69h-3.06V42.86z M23.25,47.47H24c1.35,0,2.29-0.21,2.29-1.77c0-1.35-0.78-1.73-2.01-1.73h-1.03V47.47
		z"/>
	<path class="st0" d="M31.14,42.86h1.99l2.97,5.72h-1.86l-0.54-1.13h-3.33l-0.55,1.13H28.1L31.14,42.86z M32.06,43.97l-1.17,2.42
		h2.3L32.06,43.97z"/>
	<path class="st0" d="M37.24,42.86h2.57l1.69,4.25l1.78-4.25h2.48v5.72h-1.57v-4.66h-0.02l-1.89,4.66h-1.71l-1.9-4.66h-0.02v4.66
		h-1.41V42.86z"/>
	<path class="st0" d="M50.6,42.71c2.39,0,3.4,1.28,3.4,3.01c0,1.73-1.01,3.01-3.4,3.01c-2.39,0-3.4-1.28-3.4-3.01
		C47.2,43.99,48.21,42.71,50.6,42.71z M50.6,47.55c1.27,0,1.69-0.83,1.69-1.84c0-1.01-0.42-1.84-1.69-1.84
		c-1.27,0-1.69,0.83-1.69,1.84C48.91,46.72,49.33,47.55,50.6,47.55z"/>
	<path class="st0" d="M56.81,46.72c0.02,0.73,0.35,0.89,1.12,0.89c0.98,0,1.13-0.35,1.13-0.6c0-0.38-0.4-0.51-1.05-0.63l-0.82-0.16
		c-0.94-0.18-1.93-0.53-1.93-1.62c0-1.4,1.3-1.89,2.61-1.89c2.09,0,2.68,0.64,2.74,1.78H59c-0.05-0.58-0.52-0.67-1.02-0.67
		c-0.73,0-1.05,0.25-1.05,0.56c0,0.39,0.52,0.49,1.13,0.62l0.77,0.16c1.05,0.21,1.9,0.55,1.9,1.69c0,1.59-1.61,1.89-2.89,1.89
		c-2.3,0-2.69-0.99-2.69-2H56.81z"/>
	<path class="st0" d="M69.22,48.58h-2l-2.42-5.72h1.81l1.66,4.66l1.73-4.66h1.62L69.22,48.58z"/>
	<path class="st0" d="M72.68,42.86h1.66v5.72h-1.66V42.86z"/>
	<path class="st0" d="M76.07,42.86h3.18c0.75,0,1.48,0.1,2.06,0.48c0.71,0.47,1.18,1.29,1.18,2.33c0,1.01-0.37,1.77-0.91,2.23
		c-0.49,0.42-1.28,0.69-2.45,0.69h-3.06V42.86z M77.73,47.47h0.75c1.35,0,2.29-0.21,2.29-1.77c0-1.35-0.78-1.73-2.01-1.73h-1.03
		V47.47z"/>
	<path class="st0" d="M85.62,42.86h1.99l2.97,5.72h-1.86l-0.54-1.13h-3.33l-0.55,1.13h-1.71L85.62,42.86z M86.54,43.97l-1.17,2.42
		h2.3L86.54,43.97z"/>
	<path class="st0" d="M97.37,42.86h1.99l2.97,5.72h-1.86l-0.54-1.13H96.6l-0.56,1.13h-1.71L97.37,42.86z M98.28,43.97l-1.17,2.42
		h2.31L98.28,43.97z"/>
	<path class="st0" d="M103.53,42.86h1.66v4.55h3.23v1.17h-4.89V42.86z"/>
	<path class="st0" d="M115.28,42.86h1.99l2.97,5.72h-1.86l-0.54-1.13h-3.33l-0.55,1.13h-1.71L115.28,42.86z M116.2,43.97l-1.17,2.42
		h2.3L116.2,43.97z"/>
	<path class="st0" d="M125.47,44.73c-0.09-0.63-0.6-0.85-1.24-0.85c-1.08,0-1.61,0.76-1.61,1.81c0,1.01,0.44,1.87,1.56,1.87
		c0.63,0,1.21-0.22,1.27-0.92h1.76c-0.07,1.69-1.46,2.09-3.19,2.09c-1.71,0-3.1-0.87-3.1-3c0-2.15,1.33-3.02,3.37-3.02
		c1.46,0,2.87,0.51,2.89,2.03H125.47z"/>
	<path class="st0" d="M128.63,42.86h4.91v1.17h-3.25v1.06h3.07v1.17h-3.07v1.14h3.32v1.17h-4.98V42.86z"/>
	<path class="st0" d="M135.38,42.86h3.49c1.38,0,2.16,0.5,2.16,1.5c0,0.73-0.59,1.24-1.45,1.39v0.02c0.48,0.03,0.93,0.14,1.13,0.5
		c0.28,0.52,0.31,1.73,0.55,2.32h-1.77c-0.18-0.55-0.16-1.38-0.32-1.78c-0.1-0.26-0.36-0.4-1.02-0.4h-1.11v2.17h-1.66V42.86z
		 M137.04,45.3h1.32c0.76,0,1.01-0.24,1.01-0.67c0-0.55-0.44-0.66-1.24-0.66h-1.09V45.3z"/>
	<path class="st0" d="M145.75,42.71c2.39,0,3.4,1.28,3.4,3.01c0,1.73-1,3.01-3.4,3.01c-2.39,0-3.4-1.28-3.4-3.01
		C142.35,43.99,143.36,42.71,145.75,42.71z M145.75,47.55c1.27,0,1.69-0.83,1.69-1.84c0-1.01-0.42-1.84-1.69-1.84
		c-1.27,0-1.69,0.83-1.69,1.84C144.06,46.72,144.48,47.55,145.75,47.55z"/>
</g>
<g>
	<g>
		<g>
			<path class="st0" d="M13.6,10.97c2.77,0,4.72,0.23,5.96,1.06c1.81,1.2,2.79,3.2,2.79,5.82c0,2.52-0.76,4.31-2.34,5.49
				c-1.72,1.26-3.7,1.35-6.24,1.35H8.6v7.37H4.33V10.97H13.6z M8.6,14.73v6.22h5.2c2.57,0,3.81-1,3.81-3.11
				c0-2.35-1.24-3.11-4.07-3.11H8.6z"/>
			<path class="st0" d="M32.8,10.97c4.8,0,7.09,1.91,7.09,6.34c0,3.26-1.47,5.34-4.1,5.93l5.06,8.81h-4.8l-4.47-8.28h-5.03v8.28
				h-4.26V10.97H32.8z M26.55,14.73v5.31h5.23c2.54,0,3.78-0.53,3.78-2.67c0-2.17-1.24-2.64-3.78-2.64H26.55z"/>
			<path class="st0" d="M52.61,10.97l8.64,21.08h-4.75l-1.86-5.03h-8.81l-1.81,5.03H39.5l8.59-21.08H52.61z M47.22,23.27h6.04
				l-3.08-8.1L47.22,23.27z"/>
			<path class="st0" d="M70.46,10.97c6.52,0,9.55,3.46,9.55,10.92c0,3.82-1.02,6.58-3.1,8.31c-1.98,1.64-3.87,1.85-6.33,1.85h-9.41
				V10.97H70.46z M65.43,14.64v13.74h4.94c3.79,0,4.97-1.67,4.97-6.87c0-5.17-1.19-6.87-4.97-6.87H65.43z"/>
			<path class="st0" d="M84.7,19.54h7.9v3.66h-7.93c0.03,3.78,1.47,5.16,4.83,5.16h7v3.66h-7.2c-2.46,0-4.35-0.21-6.33-1.85
				c-2.09-1.73-3.11-4.49-3.11-8.3c0-7.45,3.03-10.91,9.55-10.91h15.67l-3.99,3.67H89.5C86.43,14.64,84.87,16.23,84.7,19.54"/>
			<path class="st1" d="M101.8,22.05c0,4.74,1.39,6.32,4.99,6.32h7.04v3.68h-7.24c-2.47,0-4.37-0.21-6.35-1.85
				c-2.1-1.73-3.12-4.5-3.12-8.32c0-7.47,3.04-10.94,9.59-10.94h7.12v3.62h-7.04C103.19,14.55,101.8,16.82,101.8,22.05"/>
			<path class="st1" d="M122.15,10.93c6.77,0,9.93,3.37,9.93,10.56c0,7.19-3.16,10.58-9.93,10.58c-6.85,0-9.93-3.39-9.93-10.78
				C112.22,14.3,115.47,10.93,122.15,10.93 M116.8,21.32c0,4.95,1.61,7.24,5.35,7.24c3.69,0,5.38-2.29,5.38-7.08
				c0-4.78-1.7-7.07-5.38-7.07C118.55,14.42,116.8,16.71,116.8,21.32"/>
			<polygon class="st1" points="137.52,10.91 146.02,26.14 145.82,10.91 150.27,10.91 150.27,32.11 145.21,32.11 136.28,16.08 
				136.48,32.11 132,32.11 132,10.91 			"/>
		</g>
		<path class="st1" d="M81.42,9.16c-0.31,0.32-0.71,0.49-1.08,0.49c-0.28,0-0.54-0.1-0.74-0.29l-4.12-3.71H2.45
			c-0.65,0-1.18-0.56-1.18-1.26c0-0.35,0.13-0.67,0.35-0.89c0.21-0.23,0.51-0.37,0.84-0.37h73.98c0.24,0,0.47,0.08,0.66,0.21
			l0.18,0.16l4.24,3.83C81.99,7.79,81.94,8.6,81.42,9.16z"/>
		<path class="st0" d="M1.09,35.68c0,0.7,0.56,1.26,1.26,1.26h149.9c0.7,0,1.26-0.56,1.26-1.26l0,0c0-0.7-0.57-1.26-1.26-1.26H2.35
			C1.65,34.42,1.09,34.98,1.09,35.68L1.09,35.68z"/>
	</g>
	<path class="st0" d="M153.41,7.09c0,0.7-0.56,1.26-1.26,1.26H87.24c-0.24,0-0.48-0.06-0.67-0.19L86.19,7.8l-5.11-4.96
		c-0.53-0.52-0.54-1.36-0.03-1.9c0.26-0.27,0.61-0.4,0.96-0.4c0.21,0,0.43,0.05,0.63,0.16L88,5.84h64.15c0.35,0,0.67,0.14,0.89,0.36
		C153.27,6.43,153.41,6.75,153.41,7.09z"/>
</g>
</svg>
